# xmcd
#
# Track frame offsets:
#       150
#       9586
#       21388
#       34084
#       42300
#       55368
#       68828
#       80655
#       94030
#       112804
#       128410
#
# Disc length: 1943 seconds
#
# Revision: 0
# Processed by: cddbd v1.5.1PL2 Copyright (c) Steve Scherf et al.
# Submitted via: WaveLab 4.01
#
DISCID=8707950b
DTITLE=AyAgH - Ludina-Litak
DYEAR=2006
DGENRE=Ska
TTITLE0=Moya meta
TTITLE1=Ljudyna-litak
TTITLE2=Pobachennya
TTITLE3=Gorilka z percem
TTITLE4=Dyvnyj son
TTITLE5=Chorty v pekli
TTITLE6=Ledi-ledi
TTITLE7=Milicioner
TTITLE8=Svidanie
TTITLE9=Korolevskoe morojennoe
TTITLE10=Zironika
EXTD=
EXTT0=
EXTT1=
EXTT2=
EXTT3=
EXTT4=
EXTT5=
EXTT6=
EXTT7=
EXTT8=
EXTT9=
EXTT10=
PLAYORDER=
